<svg id="visual" viewBox="0 0 2000 50" width="2000" height="50" xmlns="http://www.w3.org/2000/svg" xmlns:xlink="http://www.w3.org/1999/xlink" version="1.1"><path d="M0 28L23.8 29.7C47.7 31.3 95.3 34.7 143 36.2C190.7 37.7 238.3 37.3 286 35.2C333.7 33 381.3 29 428.8 28.7C476.3 28.3 523.7 31.7 571.2 33.5C618.7 35.3 666.3 35.7 714 34.3C761.7 33 809.3 30 857 29.2C904.7 28.3 952.3 29.7 1000 31C1047.7 32.3 1095.3 33.7 1143 32.7C1190.7 31.7 1238.3 28.3 1286 27.3C1333.7 26.3 1381.3 27.7 1428.8 29.7C1476.3 31.7 1523.7 34.3 1571.2 35.3C1618.7 36.3 1666.3 35.7 1714 35C1761.7 34.3 1809.3 33.7 1857 33.2C1904.7 32.7 1952.3 32.3 1976.2 32.2L2000 32L2000 51L1976.2 51C1952.3 51 1904.7 51 1857 51C1809.3 51 1761.7 51 1714 51C1666.3 51 1618.7 51 1571.2 51C1523.7 51 1476.3 51 1428.8 51C1381.3 51 1333.7 51 1286 51C1238.3 51 1190.7 51 1143 51C1095.3 51 1047.7 51 1000 51C952.3 51 904.7 51 857 51C809.3 51 761.7 51 714 51C666.3 51 618.7 51 571.2 51C523.7 51 476.3 51 428.8 51C381.3 51 333.7 51 286 51C238.3 51 190.7 51 143 51C95.3 51 47.7 51 23.8 51L0 51Z" fill="#dad3d0" stroke-linecap="round" stroke-linejoin="miter"></path></svg>