<svg id="visual" viewBox="0 0 2000 50" width="2000" height="50" xmlns="http://www.w3.org/2000/svg" xmlns:xlink="http://www.w3.org/1999/xlink" version="1.1"><path d="M0 13L18.5 12.5C37 12 74 11 111 11.8C148 12.7 185 15.3 222 15.8C259 16.3 296 14.7 333 14C370 13.3 407 13.7 444.2 15.2C481.3 16.7 518.7 19.3 555.8 19C593 18.7 630 15.3 667 14.5C704 13.7 741 15.3 778 16.7C815 18 852 19 889 18.3C926 17.7 963 15.3 1000 13.8C1037 12.3 1074 11.7 1111 12C1148 12.3 1185 13.7 1222 15.7C1259 17.7 1296 20.3 1333 20.3C1370 20.3 1407 17.7 1444.2 16.8C1481.3 16 1518.7 17 1555.8 17.3C1593 17.7 1630 17.3 1667 16.2C1704 15 1741 13 1778 13.3C1815 13.7 1852 16.3 1889 16.7C1926 17 1963 15 1981.5 14L2000 13L2000 0L1981.5 0C1963 0 1926 0 1889 0C1852 0 1815 0 1778 0C1741 0 1704 0 1667 0C1630 0 1593 0 1555.8 0C1518.7 0 1481.3 0 1444.2 0C1407 0 1370 0 1333 0C1296 0 1259 0 1222 0C1185 0 1148 0 1111 0C1074 0 1037 0 1000 0C963 0 926 0 889 0C852 0 815 0 778 0C741 0 704 0 667 0C630 0 593 0 555.8 0C518.7 0 481.3 0 444.2 0C407 0 370 0 333 0C296 0 259 0 222 0C185 0 148 0 111 0C74 0 37 0 18.5 0L0 0Z" fill="#dad3d0" stroke-linecap="round" stroke-linejoin="miter"></path></svg>