<svg xmlns="http://www.w3.org/2000/svg" width="3000" height="3000" viewBox="0 0 3000 3000" version="1.1"><path d="" stroke="none" fill="#080404" fill-rule="evenodd"/><path d="M 499 1500 L 499 2501 1500 2501 L 2501 2501 2501 1500 L 2501 499 1500 499 L 499 499 499 1500 M 501 1500 L 501 2499 1500 2499 L 2499 2499 2499 1500 L 2499 501 1500 501 L 501 501 501 1500 M 1463.500 514.597 C 1440.057 515.779, 1418.052 517.348, 1401 519.052 C 1221.907 536.945, 1051.963 603.268, 908.500 711.255 C 868.612 741.280, 838.718 767.274, 802.996 802.996 C 726.597 879.395, 665.553 963.995, 617.380 1060.240 C 479.658 1335.395, 479.658 1664.605, 617.380 1939.760 C 679.273 2063.416, 764.602 2170.703, 872.500 2260.530 C 905.923 2288.356, 955.777 2323.559, 994.500 2346.678 C 1119.021 2421.023, 1257.381 2466.717, 1401 2480.926 C 1439.248 2484.710, 1454.976 2485.425, 1500 2485.425 C 1545.037 2485.425, 1560.786 2484.709, 1599 2480.924 C 1717.103 2469.226, 1828.384 2437.335, 1935.500 2384.492 C 1979.315 2362.876, 2004.304 2348.498, 2045 2321.490 C 2191.660 2224.155, 2308.818 2090.534, 2386.061 1932.500 C 2437.726 1826.798, 2469.249 1716.006, 2480.950 1599 C 2484.521 1563.294, 2485.435 1543.106, 2485.435 1500 C 2485.435 1456.894, 2484.521 1436.706, 2480.950 1401 C 2460.656 1198.062, 2378.326 1007.686, 2244.003 853.096 C 2169.796 767.692, 2080.072 694.775, 1979.937 638.491 C 1958.325 626.344, 1910.278 602.805, 1886.500 592.715 C 1783.156 548.862, 1679.647 524.273, 1563.500 515.985 C 1548.571 514.920, 1476.842 513.924, 1463.500 514.597 M 1449.500 576.126 C 1202.799 589.814, 973.505 700.340, 809.197 884.771 C 684.334 1024.925, 605.440 1198.320, 582.049 1384 C 572.614 1458.902, 572.614 1541.098, 582.049 1616 C 620.630 1922.261, 809.999 2189.296, 1086.951 2327.976 C 1239 2404.112, 1411.748 2436.705, 1582.500 2421.473 C 1821.019 2400.196, 2040.563 2287.964, 2198.394 2106.626 C 2323.770 1962.576, 2401.216 1783.577, 2420.405 1593.500 C 2423.917 1558.708, 2424.487 1545.643, 2424.487 1500 C 2424.487 1454.357, 2423.917 1441.292, 2420.405 1406.500 C 2401.219 1216.455, 2323.749 1037.400, 2198.394 893.374 C 2120.166 803.495, 2027.214 730.659, 1921.500 676.407 C 1805.145 616.693, 1680.400 583.249, 1547 576.006 C 1525.618 574.845, 1471.384 574.911, 1449.500 576.126 M 1505.718 744.042 C 1495.109 745.820, 1484.758 754.861, 1481.838 764.901 C 1480.138 770.744, 1480.359 779.287, 1482.351 784.733 C 1483.203 787.061, 1489.017 796.061, 1495.271 804.733 C 1501.525 813.405, 1515.355 832.875, 1526.004 848 C 1536.652 863.125, 1551.482 883.825, 1558.959 894 C 1580.934 923.906, 1590.711 938.602, 1597.360 951.724 L 1599.968 956.871 1584.734 946.569 C 1529.452 909.184, 1493.780 890.576, 1451.500 877.071 C 1430.132 870.245, 1423.289 868.743, 1415.900 869.254 C 1403.714 870.098, 1392.962 878.654, 1389.519 890.247 C 1386.028 902.003, 1387.853 907.669, 1402.831 931.574 C 1430.280 975.384, 1441.640 999.616, 1450.479 1033.213 C 1466.593 1094.468, 1463.812 1166.389, 1443.332 1218 C 1432.830 1244.466, 1421.565 1263.665, 1377.027 1331 C 1359.020 1358.225, 1338.451 1389.725, 1331.320 1401 C 1291.787 1463.501, 1253.959 1529.858, 1220.935 1594.634 C 1208.632 1618.769, 1208.632 1618.769, 1208.632 1626.748 C 1208.632 1641.111, 1203.411 1635.189, 1301.023 1731.544 C 1399.275 1828.531, 1394.654 1824.552, 1408.902 1824.440 C 1415.046 1824.392, 1417.588 1823.857, 1422.188 1821.647 C 1436.700 1814.673, 1455.681 1800.335, 1469.055 1786.245 C 1484.897 1769.556, 1495.058 1753.686, 1510.831 1721 C 1520.677 1700.596, 1539.892 1664.430, 1547.757 1651.500 C 1555.004 1639.585, 1560.049 1633.380, 1566.313 1628.673 C 1579.930 1618.441, 1588.889 1616.283, 1623 1615.021 C 1637.025 1614.502, 1653.450 1613.816, 1659.500 1613.497 C 1683.905 1612.208, 1713.243 1606.336, 1734.500 1598.485 C 1747.272 1593.767, 1772.165 1581.691, 1782.500 1575.198 L 1790.500 1570.172 1791.136 1575.336 C 1791.485 1578.176, 1792.356 1591.750, 1793.072 1605.500 C 1797.519 1690.998, 1779.822 1768.370, 1743.398 1822.670 C 1734.745 1835.570, 1720.117 1853.028, 1711.234 1861.057 C 1702.103 1869.310, 1659.100 1892.346, 1634.279 1902.281 C 1620.458 1907.812, 1577.384 1916.554, 1551.258 1919.129 C 1535.778 1920.655, 1494.629 1920.643, 1479.500 1919.107 C 1417.364 1912.801, 1360.606 1896.804, 1305.445 1870.048 C 1251.343 1843.807, 1207.359 1812.492, 1164.983 1770.046 C 1125.120 1730.116, 1094.615 1687.559, 1069.973 1637.500 C 1044.698 1586.157, 1029.860 1535.890, 1022.866 1477.925 C 1019.861 1453.012, 1019.585 1403.377, 1022.325 1380.500 C 1026.360 1346.814, 1033.353 1312.566, 1042.595 1281.231 C 1049.352 1258.317, 1049.583 1256.825, 1047.581 1249.010 C 1045.712 1241.714, 1041.229 1234.997, 1035.500 1230.907 C 1032.693 1228.904, 989.635 1213.575, 891.177 1179.526 C 756.104 1132.816, 750.582 1131, 743.587 1131 C 737.473 1131, 735.342 1131.488, 730.165 1134.076 C 721.970 1138.171, 718.140 1143.101, 711.907 1157.579 C 681.546 1228.105, 662.328 1311.037, 654.805 1404 C 653.083 1425.273, 653.092 1505.705, 654.818 1526 C 661.574 1605.431, 678.642 1678.154, 707.740 1751.500 C 762.107 1888.536, 856.253 2015.828, 976.712 2115.167 C 1046.083 2172.376, 1125.595 2218.187, 1196.551 2241.829 C 1227.185 2252.036, 1252.012 2256.978, 1297.737 2261.972 C 1313.268 2263.667, 1326.974 2265.425, 1328.196 2265.877 C 1330.098 2266.580, 1329.490 2267.006, 1323.958 2268.846 C 1320.406 2270.028, 1312.713 2272.075, 1306.863 2273.396 C 1294.150 2276.268, 1290.296 2277.977, 1285.048 2283.070 C 1278.955 2288.982, 1276.728 2294.167, 1276.207 2303.648 C 1275.817 2310.757, 1276.074 2312.478, 1278.220 2317.148 C 1282.792 2327.093, 1289.503 2332.712, 1300.236 2335.581 C 1310.133 2338.226, 1340.483 2343.911, 1358 2346.401 C 1384.655 2350.189, 1400.359 2351.341, 1425 2351.317 C 1457.940 2351.285, 1476.849 2348.398, 1503.261 2339.366 C 1539.086 2327.116, 1567.069 2311.598, 1620.500 2274.355 C 1668.507 2240.893, 1685.658 2231.214, 1706.031 2226.087 C 1720.739 2222.386, 1733.686 2221.230, 1736.500 2223.367 C 1738.482 2224.872, 1738.475 2224.935, 1735.646 2230.408 C 1733.904 2233.778, 1728.992 2239.761, 1723.045 2245.759 C 1711.249 2257.654, 1708.510 2263.265, 1709.251 2274.016 C 1710.079 2286.037, 1715.765 2294.728, 1726.222 2299.953 C 1731.304 2302.493, 1733.500 2302.999, 1739.410 2302.994 C 1756.716 2302.978, 1812.677 2284.317, 1846 2267.449 C 1868.334 2256.144, 1883.598 2245.685, 1896.076 2233.136 C 1912.061 2217.061, 1919.915 2204.325, 1935.501 2169.204 C 1956.691 2121.454, 1972.852 2106.693, 2045.462 2068.761 C 2058.133 2062.142, 2078.310 2051.593, 2090.301 2045.319 C 2143.714 2017.371, 2171.828 1998.731, 2196.359 1975 C 2214.683 1957.274, 2226.917 1940.875, 2235.898 1922 C 2239.024 1915.431, 2239.463 1913.569, 2239.434 1907 C 2239.381 1894.805, 2233.325 1884.825, 2222.563 1879.196 C 2218.260 1876.945, 2216.224 1876.544, 2209 1876.524 C 2201.139 1876.502, 2199.636 1876.854, 2189 1881.207 C 2156.558 1894.485, 2120.965 1897.676, 2118.419 1887.535 C 2115.871 1877.383, 2132.766 1859.017, 2193.472 1805.947 C 2251.564 1755.162, 2279.447 1728.997, 2293.172 1712.393 C 2319.907 1680.046, 2342.010 1638.692, 2358.051 1591 C 2371.797 1550.134, 2380.074 1508.224, 2380.369 1478 C 2380.488 1465.760, 2380.278 1464.008, 2378.118 1459.230 C 2373.167 1448.275, 2361.724 1441, 2349.444 1441 C 2342.609 1441, 2338.337 1442.606, 2325.873 1449.866 C 2292.420 1469.349, 2260.325 1475.729, 2248.677 1465.212 C 2245.721 1462.542, 2241.131 1452.679, 2239.388 1445.250 C 2234.881 1426.043, 2242.498 1408.472, 2264.651 1386.969 C 2281.119 1370.984, 2298.120 1358.987, 2324 1345.088 C 2337.444 1337.868, 2340.044 1335.601, 2344.030 1327.625 C 2346.508 1322.666, 2346.993 1320.506, 2346.956 1314.590 C 2346.872 1300.994, 2342.841 1294.622, 2328.044 1284.694 C 2290.454 1259.474, 2238.623 1216.023, 2193.019 1171.500 C 2160.055 1139.317, 2139.240 1121.059, 2099 1089.031 C 1994.083 1005.524, 1835.829 899.153, 1717 832.268 C 1640.719 789.332, 1599.426 769.965, 1549.500 753.710 C 1521.115 744.468, 1513.377 742.759, 1505.718 744.042 M 1592 835.604 C 1592 835.943, 1598.760 845.388, 1607.022 856.595 C 1640.377 901.838, 1653.337 923.687, 1666.283 956.500 C 1673.047 973.643, 1682.458 1003.974, 1681.328 1004.985 C 1679.786 1006.362, 1619.997 1047.001, 1619.143 1047.252 C 1618.677 1047.388, 1611.367 1042.059, 1602.898 1035.409 C 1575.047 1013.540, 1554.338 998.811, 1527 981.430 C 1510.751 971.099, 1488.683 958.005, 1488.242 958.433 C 1488.099 958.571, 1489.747 962.502, 1491.903 967.169 C 1504.843 995.176, 1516.096 1039.286, 1520.178 1078 C 1521.764 1093.038, 1521.762 1137.374, 1520.176 1152 C 1514.932 1200.336, 1506.372 1230.216, 1486.516 1269.500 C 1475.231 1291.826, 1466.060 1306.678, 1428.713 1363.104 C 1364.470 1460.167, 1324.853 1526.313, 1285.887 1601.572 L 1275.775 1621.102 1323.137 1667.747 C 1349.187 1693.402, 1380.045 1723.835, 1391.711 1735.376 L 1412.922 1756.360 1422.342 1746.930 C 1434.553 1734.708, 1441.415 1724.051, 1455.472 1695.481 C 1475.879 1654.006, 1496.913 1616.296, 1507.484 1602.233 C 1523.590 1580.807, 1547.528 1565.338, 1574.447 1558.961 C 1588.196 1555.704, 1595.511 1555.019, 1627.500 1553.995 C 1644.550 1553.449, 1664.125 1552.284, 1671 1551.407 C 1713.471 1545.988, 1751.834 1527.642, 1785.905 1496.457 C 1796.743 1486.537, 1802.033 1484.023, 1812.090 1484.010 C 1818.561 1484.001, 1820.580 1484.450, 1825.778 1487.047 C 1836.484 1492.397, 1840.509 1498.733, 1843.853 1515.500 C 1855.983 1576.321, 1857.746 1651.853, 1848.418 1711 C 1842.199 1750.427, 1829.885 1790.367, 1814.505 1820.990 L 1809.952 1830.055 1814.226 1827.371 C 1864.059 1796.073, 1907.828 1756.324, 1940.713 1712.500 C 1990.047 1646.755, 2018.782 1568.642, 2026.610 1479 C 2028.877 1453.029, 2028.101 1401.930, 2025.053 1376.524 C 2020.828 1341.307, 2014.793 1311.249, 2005.427 1278.772 C 1969.207 1153.176, 1892.735 1038.537, 1786 949.833 C 1758.182 926.715, 1742.692 916.598, 1687.500 885.497 C 1649.321 863.984, 1592 834.037, 1592 835.604 M 1979.458 1076.534 C 1985.394 1085.524, 2001.812 1113.541, 2009.007 1126.958 C 2046.055 1196.040, 2071.748 1273.092, 2082.477 1347.286 C 2089.956 1399.009, 2090.999 1453.710, 2085.437 1502.500 C 2075.092 1593.256, 2042.563 1677.212, 1990.493 1747.546 C 1916.361 1847.681, 1798.158 1922.754, 1654.238 1961.108 C 1647.782 1962.828, 1640.250 1965.123, 1637.500 1966.207 C 1624.391 1971.373, 1606.677 1974.846, 1578.955 1977.682 C 1554.241 1980.211, 1547.856 1980.491, 1515 1980.484 C 1476.086 1980.477, 1466.385 1979.747, 1434.642 1974.443 C 1355.940 1961.293, 1280.556 1931.850, 1214 1888.267 C 1096.959 1811.624, 1012.421 1695.349, 976.970 1562.250 C 973.150 1547.907, 972.399 1545.997, 970.571 1545.974 C 965.422 1545.909, 725.206 1564.154, 722.868 1564.787 C 720.237 1565.500, 720.237 1565.500, 723.516 1584.500 C 747.279 1722.171, 810.367 1850.682, 911.725 1967.887 C 928.293 1987.046, 975.519 2034.225, 994.500 2050.582 C 1046.117 2095.061, 1095.395 2128.780, 1147 2154.933 C 1200.995 2182.296, 1241.454 2194.777, 1294.500 2200.431 C 1335.543 2204.807, 1348.058 2206.924, 1359.004 2211.346 C 1377.659 2218.881, 1390.449 2231.923, 1396.100 2249.172 C 1399.439 2259.367, 1399.436 2274.810, 1396.091 2283.319 C 1394.834 2286.519, 1394.074 2289.407, 1394.403 2289.736 C 1395.680 2291.014, 1445.472 2290.504, 1454.500 2289.121 C 1478.246 2285.482, 1507.501 2274.003, 1536.633 2256.894 C 1545.318 2251.794, 1572.144 2233.872, 1601 2213.892 C 1644.359 2183.871, 1667.251 2172.391, 1697.617 2165.440 C 1713.062 2161.905, 1738.264 2160.920, 1750 2163.392 C 1774.376 2168.528, 1793.499 2189.234, 1798.062 2215.432 C 1798.691 2219.045, 1799.497 2221.998, 1799.853 2221.996 C 1800.209 2221.993, 1807.250 2218.674, 1815.500 2214.620 C 1841.618 2201.785, 1855.476 2190.855, 1864.533 2175.946 C 1866.633 2172.489, 1872.983 2159.535, 1878.645 2147.159 C 1894.606 2112.270, 1903.936 2097.523, 1921.929 2078.740 C 1943.001 2056.745, 1963.043 2043.189, 2013.628 2016.718 C 2025.658 2010.423, 2046.443 1999.556, 2059.817 1992.569 C 2085.475 1979.165, 2102.709 1969.407, 2117.265 1960.041 L 2126.078 1954.371 2118.549 1953.200 C 2088.685 1948.557, 2068.364 1931.520, 2059.868 1904 C 2056.911 1894.421, 2056.699 1877.924, 2059.405 1868 C 2066.921 1840.440, 2083.586 1821.258, 2152.060 1761.356 C 2215.996 1705.424, 2239.708 1682.926, 2252.077 1666.460 C 2276.789 1633.563, 2296.890 1589.773, 2308.977 1542.500 C 2314.878 1519.423, 2314.906 1521.796, 2308.756 1523.911 C 2293.781 1529.060, 2285.160 1530.393, 2266.500 1530.448 C 2250.678 1530.494, 2247.556 1530.226, 2240.701 1528.240 C 2206.776 1518.407, 2185.375 1491.528, 2178.458 1450.061 C 2173.552 1420.658, 2182.452 1390.658, 2204.401 1362.606 C 2213.512 1350.962, 2233.498 1331.944, 2248 1321.118 C 2254.875 1315.986, 2260.500 1311.645, 2260.500 1311.470 C 2260.500 1311.296, 2252.400 1304.657, 2242.500 1296.716 C 2208.266 1269.259, 2181.791 1245.702, 2149 1213.521 C 2119.551 1184.620, 2095.137 1163.354, 2056 1132.514 C 2038.016 1118.343, 1991.079 1082.899, 1982.382 1076.923 C 1977.500 1073.569, 1977.500 1073.569, 1979.458 1076.534 M 755.325 1213.259 C 738.449 1259.998, 724.633 1321.292, 718.528 1376.500 C 715.206 1406.548, 714.821 1413.981, 714.302 1458.250 C 713.765 1504, 713.765 1504, 716.632 1503.942 C 718.210 1503.911, 773.950 1499.742, 840.500 1494.678 L 961.500 1485.472 961.465 1479.986 C 961.446 1476.969, 960.822 1465.050, 960.078 1453.500 C 956.864 1403.563, 962.893 1346.248, 977.383 1289 C 979.262 1281.575, 980.629 1275.321, 980.419 1275.103 C 980.015 1274.681, 761.860 1199.034, 760.987 1199.012 C 760.705 1199.006, 758.157 1205.416, 755.325 1213.259" stroke="none" fill="#040404" fill-rule="evenodd"/></svg>